# xmcd
#
# Track frame offsets:
#	150
#	11904
#	28890
#	41519
#	57011
#	73508
#	90734
#	104389
#	122260
#	133885
#	150605
#
# Disc length: 2166 seconds
#
# Revision: 1
# Processed by: cddbd v1.5.2PL0 Copyright (c) Steve Scherf et al.
# Submitted via: EasyCDDAExtractor 5.0.7
#
DISCID=8e08740b
DTITLE=Chris Gray - It's All About Me
DYEAR=2007
DGENRE=Country
TTITLE0=I Only Have Good Days
TTITLE1=It's All About Me
TTITLE2=The Horse
TTITLE3=Savin' It Up for a Sunny Day
TTITLE4=Golden Years
TTITLE5=One of These Days
TTITLE6=She Likes Me Bad
TTITLE7=South of Heaven
TTITLE8=Stop and Drink It Over
TTITLE9=Smaller Pieces
TTITLE10=Somethin' Somethin'
EXTD=
EXTT0=
EXTT1=
EXTT2=
EXTT3=
EXTT4=
EXTT5=
EXTT6=
EXTT7=
EXTT8=
EXTT9=
EXTT10=
PLAYORDER=
